# xmcd CD database file
#
# Track frame offsets:
#	150
#	19535
#	37590
#	56590
#	70220
#	93970
#	114050
#	132270
#	150365
#	168960
#	188335
#	206160
#	227070
#	245235
#	265055
#	284530
#	302895
#	323985
#	343780
#
# Disc length: 4797 seconds
#
# Revision: 6
# Processed by: cddbd v1.5.2PL0 Copyright (c) Steve Scherf et al.
# Submitted via: CDex 1.70beta2
#
DISCID=fd12bb13
DTITLE=Kenny G - Kenny G - Ultimate
DYEAR=2003
DGENRE=Jazz
TTITLE0=Everlasting
TTITLE1=Havana
TTITLE2=Brazil
TTITLE3=What A Wonderful World (With Louis Armstrong)
TTITLE4=The Look Of Love (From Casino Royale)
TTITLE5=Silhouette
TTITLE6=One More Time (With Chante Moore)
TTITLE7=Theme From Dying Young
TTITLE8=Forever In Love
TTITLE9=We've Saved The Best For Last
TTITLE10=Songbird
TTITLE11=Jasmine Flower
TTITLE12=The Girl From Ipanema (With Bebel Gilberto)
TTITLE13=By The Time This Night Is Over (With Peabo Bryson)
TTITLE14=The Champion's Theme
TTITLE15=Don't Make Me Wait For Love
TTITLE16=The Moment
TTITLE17=My Heart Will Go On (From Titanic)
TTITLE18=The Wedding Song
EXTD=YEAR: 2003
EXTT0=
EXTT1=
EXTT2=
EXTT3=
EXTT4=
EXTT5=
EXTT6=
EXTT7=
EXTT8=
EXTT9=
EXTT10=
EXTT11=
EXTT12=
EXTT13=
EXTT14=
EXTT15=
EXTT16=
EXTT17=
EXTT18=
PLAYORDER=
